<?xml version="1.0" encoding="utf-8"?>
<!-- Generator: Adobe Illustrator 21.0.0, SVG Export Plug-In . SVG Version: 6.00 Build 0)  -->
<svg version="1.1" id="svg_null" xmlns="http://www.w3.org/2000/svg" xmlns:xlink="http://www.w3.org/1999/xlink" x="0px" y="0px"
	 viewBox="0 0 440 130" style="enable-background:new 0 0 440 130;" xml:space="preserve">
<style type="text/css">
	.st0{fill:#B2EBF9;}
	.st1{fill:#AEA1EA;fill-opacity:0.8;}
	.st2{fill:none;}
	.st3{fill:#8C54A1;}
	.st4{font-family:'Orbitron-Medium';}
	.st5{font-size:47.0326px;}
	.st6{letter-spacing:3;}
</style>
<g id="root">
	<path id="shape.accent" class="st0" d="M65.3,19.2c-2.3,0-4.2-1.8-4.2-4.1s1.9-4.1,4.2-4.1c2.3,0,4.2,1.8,4.2,4.1
		S67.6,19.2,65.3,19.2z M87,22.9c-2.1-1.1-2.9-3.6-1.8-5.6c1.1-2,3.6-2.7,5.7-1.6c2.1,1.1,2.9,3.6,1.8,5.6S89,24,87,22.9L87,22.9z
		 M104.4,36.1c-1.3-1.9-0.9-4.5,0.9-5.8c1.9-1.3,4.4-0.8,5.8,1.1c1.3,1.9,0.9,4.5-0.9,5.8C108.3,38.5,105.8,38,104.4,36.1
		L104.4,36.1z M101,95.3c1.7-1.6,4.4-1.5,5.9,0.2c1.5,1.7,1.3,4.3-0.4,5.9c-1.7,1.6-4.4,1.5-5.9-0.2C99.1,99.5,99.3,96.9,101,95.3z
		 M82.2,106.5c2.3-0.6,4.5,0.8,5.1,3c0.5,2.2-0.8,4.4-3.1,5c-2.3,0.6-4.5-0.8-5.1-3C78.6,109.3,80,107.1,82.2,106.5z M60.2,107.9
		c2.3,0.6,3.6,2.8,3.1,5c-0.5,2.2-2.8,3.5-5.1,3c-2.3-0.6-3.6-2.8-3.1-5C55.7,108.7,58,107.3,60.2,107.9z M40.1,99.3
		c1.7,1.6,1.9,4.2,0.4,5.9c-1.5,1.7-4.2,1.8-5.9,0.2c-1.7-1.6-1.9-4.2-0.4-5.9S38.4,97.7,40.1,99.3L40.1,99.3z M26.4,82.4
		c0.8,2.2-0.2,4.6-2.3,5.4c-2.1,0.8-4.5-0.3-5.3-2.5c-0.8-2.2,0.2-4.6,2.3-5.4C23.2,79.2,25.5,80.3,26.4,82.4z M22.3,61.4
		c-0.3,2.3-2.3,4-4.6,3.7c-2.3-0.3-3.8-2.4-3.6-4.7c0.3-2.3,2.3-4,4.6-3.7C21,57,22.6,59.1,22.3,61.4L22.3,61.4z M28.7,40.9
		c-1.3,1.9-3.9,2.4-5.8,1.1c-1.9-1.3-2.3-3.9-0.9-5.8c1.3-1.9,3.9-2.4,5.8-1.1C29.6,36.4,30.1,39,28.7,40.9L28.7,40.9z M44.3,25.7
		c-2.1,1.1-4.6,0.4-5.7-1.6c-1.1-2-0.3-4.5,1.8-5.6c2.1-1.1,4.6-0.4,5.7,1.6C47.1,22.1,46.3,24.6,44.3,25.7z"/>
	<path id="shape.secondary" class="st1" d="M66.1,30c-1.7,0-3.1-1.3-3.1-3c0-1.7,1.4-3,3.1-3c1.7,0,3.1,1.3,3.1,3
		C69.2,28.7,67.8,30,66.1,30z M82.9,33.8c-1.5-0.8-2.1-2.6-1.3-4.1c0.8-1.5,2.6-2,4.1-1.2c1.5,0.8,2.1,2.6,1.3,4.1
		C86.2,34.1,84.4,34.6,82.9,33.8L82.9,33.8z M95.6,43.6c-1-1.4-0.6-3.3,0.7-4.2c1.4-1,3.3-0.6,4.2,0.8s0.6,3.3-0.7,4.2
		C98.5,45.3,96.6,45,95.6,43.6z M93.3,87.1c1.3-1.1,3.2-1,4.3,0.2c1.1,1.2,1,3.2-0.3,4.3c-1.3,1.1-3.2,1-4.3-0.2
		C91.9,90.2,92,88.2,93.3,87.1L93.3,87.1z M79.1,94.7c1.6-0.4,3.3,0.6,3.7,2.2c0.4,1.6-0.6,3.3-2.2,3.7s-3.3-0.6-3.7-2.2
		C76.4,96.7,77.4,95.1,79.1,94.7z M63.2,95.7c1.6,0.4,2.6,2,2.2,3.7c-0.4,1.6-2.1,2.6-3.7,2.2c-1.6-0.4-2.6-2-2.2-3.7
		C59.9,96.3,61.5,95.3,63.2,95.7z M49.2,90c1.3,1.1,1.4,3,0.3,4.3c-1.1,1.2-3,1.3-4.3,0.2s-1.4-3-0.3-4.3C46,88.9,47.9,88.9,49.2,90
		L49.2,90z M38.9,77.3c0.6,1.6-0.2,3.3-1.7,3.9s-3.3-0.2-3.9-1.8s0.2-3.3,1.7-3.9S38.2,75.7,38.9,77.3z M35.3,61.4
		C35.1,63,33.6,64.2,32,64s-2.8-1.7-2.6-3.4c0.2-1.7,1.7-2.9,3.4-2.7C34.4,58.2,35.6,59.7,35.3,61.4z M40.9,47.2
		c-1,1.4-2.9,1.7-4.2,0.8c-1.4-1-1.7-2.8-0.7-4.2c1-1.4,2.9-1.7,4.2-0.8C41.5,43.9,41.8,45.8,40.9,47.2L40.9,47.2z M52,35.9
		c-1.5,0.8-3.3,0.2-4.1-1.2s-0.2-3.3,1.3-4.1c1.5-0.8,3.3-0.2,4.1,1.2C54.1,33.2,53.5,35.1,52,35.9L52,35.9z"/>
	<g id="Group" transform="translate(140.000000, 206.000000)">
		<rect id="Rectangle-71" x="-26" y="-171" class="st2" width="320" height="70"/>
		<text transform="matrix(1 0 0 1 -26 -123)" class="st3 st4 st5 st6">Myan Bake</text>
	</g>
</g>
</svg>
