<?xml version="1.0" encoding="utf-8"?>
<!-- Generator: Adobe Illustrator 21.0.0, SVG Export Plug-In . SVG Version: 6.00 Build 0)  -->
<svg version="1.1" xmlns="http://www.w3.org/2000/svg" xmlns:xlink="http://www.w3.org/1999/xlink" x="0px" y="0px"
	 viewBox="0 0 16 13" style="enable-background:new 0 0 16 13;" xml:space="preserve">
<style type="text/css">
	.st0{fill:#E8453C;}
</style>
<g id="Layer_2">
	<rect x="2.1" y="2.1" class="st0" width="6.9" height="5.5"/>
</g>
<g id="Layer_4">
	<rect x="8.7" y="1.4" class="st0" width="6" height="5"/>
	<rect x="5" y="6.1" class="st0" width="6" height="3.9"/>
	<rect x="10.5" y="0.7" class="st0" width="3" height="1.3"/>
	<rect x="14.3" y="3" class="st0" width="0.9" height="2"/>
	<rect x="10.1" y="6.2" class="st0" width="3.8" height="1.3"/>
	<rect x="3" y="7.3" class="st0" width="3.3" height="1.1"/>
	<rect x="6" y="9.6" class="st0" width="1.9" height="1.5"/>
	<rect x="10.7" y="7.1" class="st0" width="1.8" height="1.9"/>
	<rect x="11.4" y="6.4" class="st0" width="1.4" height="1.8"/>
	<rect x="4.1" y="7.8" class="st0" width="1.5" height="1.6"/>
	<rect x="7.4" y="9.2" class="st0" width="1.8" height="2.2"/>
	<rect x="8.9" y="8.4" class="st0" width="1.2" height="2.5"/>
	<rect x="6.9" y="9.9" class="st0" width="2" height="2"/>
</g>
<g id="Layer_3">
	<rect x="2.3" y="0.9" class="st0" width="4.3" height="1.4"/>
	<rect x="0.9" y="1.5" class="st0" width="2" height="4.7"/>
</g>
<g id="Layer_1">
	<g transform="matrix(1 0 0 1 -199 -2370 )">
		<path class="st0" d="M212.2,2377c1.1-1.1,1.7-2.1,1.7-3c0-0.5-0.1-0.9-0.2-1.2s-0.3-0.6-0.5-0.8s-0.4-0.4-0.7-0.5
			c-0.3-0.1-0.6-0.2-0.8-0.3c-0.3,0-0.6-0.1-0.9-0.1s-0.6,0.1-1,0.2c-0.4,0.1-0.7,0.3-1,0.5c-0.3,0.2-0.6,0.4-0.8,0.6
			c-0.2,0.2-0.4,0.4-0.5,0.5c-0.1,0.1-0.3,0.2-0.4,0.2s-0.3-0.1-0.4-0.2c-0.1-0.2-0.3-0.3-0.5-0.5c-0.2-0.2-0.5-0.4-0.8-0.6
			c-0.3-0.2-0.6-0.4-1-0.5c-0.4-0.1-0.7-0.2-1-0.2s-0.6,0-0.9,0.1c-0.3,0-0.6,0.1-0.8,0.3c-0.3,0.1-0.5,0.3-0.7,0.5
			s-0.4,0.5-0.5,0.8s-0.2,0.8-0.2,1.2c0,0.9,0.6,1.9,1.7,3l5.2,4.7L212.2,2377z M213.9,2371c0.8,0.7,1.1,1.7,1.1,2.9
			c0,1.2-0.7,2.5-2,3.8l-5.6,5.1c-0.1,0.1-0.2,0.2-0.4,0.2s-0.3-0.1-0.4-0.2l-5.6-5.1c-0.1,0-0.1-0.1-0.2-0.2s-0.3-0.3-0.5-0.6
			c-0.2-0.3-0.4-0.5-0.6-0.8c-0.2-0.3-0.3-0.6-0.5-1s-0.2-0.8-0.2-1.2c0-1.2,0.4-2.2,1.1-2.9c0.8-0.7,1.8-1,3.1-1
			c0.4,0,0.7,0.1,1.1,0.2s0.7,0.3,1.1,0.5s0.6,0.4,0.9,0.6c0.2,0.2,0.5,0.4,0.7,0.6c0.2-0.2,0.4-0.4,0.7-0.6
			c0.2-0.2,0.5-0.4,0.9-0.6s0.7-0.4,1.1-0.5s0.8-0.2,1.1-0.2C212.1,2370,213.1,2370.3,213.9,2371z"/>
	</g>
</g>
</svg>
