<?xml version="1.0" encoding="utf-8"?>
<svg version="1.1" xmlns:xlink="http://www.w3.org/1999/xlink" width="16px" height="13px" xmlns="http://www.w3.org/2000/svg">
  <g transform="matrix(1 0 0 1 -199 -2370 )">
    <path d="M 13.1785714285714 6.97395833333333  C 14.297619047619 5.91319444444444  14.8571428571429 4.90885416666667  14.8571428571429 3.9609375  C 14.8571428571429 3.50390625  14.7931547619048 3.10047743055555  14.6651785714286 2.75065104166667  C 14.5372023809524 2.40082465277778  14.3735119047619 2.12293836805555  14.1741071428571 1.9169921875  C 13.9747023809524 1.71104600694444  13.7321428571429 1.54318576388889  13.4464285714286 1.41341145833333  C 13.1607142857143 1.28363715277778  12.8809523809524 1.19618055555555  12.6071428571429 1.15104166666667  C 12.3333333333333 1.10590277777778  12.0416666666667 1.08333333333333  11.7321428571429 1.08333333333333  C 11.422619047619 1.08333333333333  11.0892857142857 1.1552734375  10.7321428571429 1.29915364583333  C 10.375 1.44303385416667  10.046130952381 1.62358940972222  9.74553571428571 1.8408203125  C 9.44494047619048 2.05805121527778  9.1875 2.26117621527778  8.97321428571429 2.4501953125  C 8.75892857142857 2.63921440972222  8.58035714285714 2.81271701388889  8.4375 2.970703125  C 8.33035714285714 3.09483506944444  8.18452380952381 3.15690104166667  8 3.15690104166667  C 7.81547619047619 3.15690104166667  7.66964285714286 3.09483506944444  7.5625 2.970703125  C 7.41964285714286 2.81271701388889  7.24107142857143 2.63921440972222  7.02678571428571 2.4501953125  C 6.8125 2.26117621527778  6.55505952380952 2.05805121527778  6.25446428571429 1.8408203125  C 5.95386904761905 1.62358940972222  5.625 1.44303385416667  5.26785714285714 1.29915364583333  C 4.91071428571429 1.1552734375  4.57738095238095 1.08333333333333  4.26785714285714 1.08333333333333  C 3.95833333333333 1.08333333333333  3.66666666666667 1.10590277777778  3.39285714285714 1.15104166666667  C 3.11904761904762 1.19618055555555  2.83928571428571 1.28363715277778  2.55357142857143 1.41341145833333  C 2.26785714285714 1.54318576388889  2.02529761904762 1.71104600694444  1.82589285714286 1.9169921875  C 1.6264880952381 2.12293836805555  1.46279761904762 2.40082465277778  1.33482142857143 2.75065104166667  C 1.20684523809524 3.10047743055555  1.14285714285714 3.50390625  1.14285714285714 3.9609375  C 1.14285714285714 4.90885416666667  1.69940476190476 5.91037326388889  2.8125 6.96549479166667  L 8 11.705078125  L 13.1785714285714 6.97395833333333  Z M 14.8660714285714 1.04947916666667  C 15.6220238095238 1.74913194444444  16 2.71961805555555  16 3.9609375  C 16 5.20789930555556  15.3184523809524 6.47743055555556  13.9553571428571 7.76953125  L 8.39285714285714 12.84765625  C 8.28571428571429 12.94921875  8.15476190476191 13  8 13  C 7.8452380952381 13  7.71428571428572 12.94921875  7.60714285714286 12.84765625  L 2.03571428571429 7.75260416666667  C 1.97619047619048 7.70746527777778  1.89434523809524 7.63411458333333  1.79017857142857 7.53255208333333  C 1.6860119047619 7.43098958333333  1.52083333333333 7.24620225694444  1.29464285714286 6.97819010416667  C 1.06845238095238 6.71017795138889  0.866071428571429 6.43511284722222  0.6875 6.15299479166667  C 0.508928571428571 5.87087673611111  0.349702380952381 5.52951388888889  0.209821428571429 5.12890625  C 0.0699404761904762 4.72829861111111  0 4.33897569444444  0 3.9609375  C 0 2.71961805555555  0.37797619047619 1.74913194444444  1.13392857142857 1.04947916666667  C 1.88988095238095 0.349826388888889  2.93452380952381 0  4.26785714285714 0  C 4.63690476190476 0  5.01339285714286 0.0606553819444436  5.39732142857143 0.181966145833334  C 5.78125 0.303276909722221  6.13839285714286 0.466905381944444  6.46875 0.6728515625  C 6.79910714285714 0.878797743055555  7.08333333333333 1.07204861111111  7.32142857142857 1.25260416666667  C 7.55952380952381 1.43315972222222  7.78571428571429 1.625  8 1.828125  C 8.21428571428571 1.625  8.44047619047619 1.43315972222222  8.67857142857143 1.25260416666667  C 8.91666666666667 1.07204861111111  9.20089285714286 0.878797743055555  9.53125 0.6728515625  C 9.86160714285714 0.466905381944444  10.21875 0.303276909722221  10.6026785714286 0.181966145833334  C 10.9866071428571 0.0606553819444436  11.3630952380952 0  11.7321428571429 0  C 13.0654761904762 0  14.110119047619 0.349826388888889  14.8660714285714 1.04947916666667  Z " fill-rule="nonzero" fill="#e8453c" stroke="none" transform="matrix(1 0 0 1 199 2370 )" />
  </g>
</svg>